<svg width="128" height="128" viewBox="0 0 128 128" fill="none" xmlns="http://www.w3.org/2000/svg">
<circle cx="64" cy="64" r="64" fill="#F5F4F0"/>
<path d="M64 20C56.2329 20 48.9289 22.015 42.5899 25.5525C38.0641 28.078 38.6952 34.0564 42.5367 36.4845C44.7799 37.9024 47.5089 37.8056 49.6576 36.6758C53.9397 34.4243 58.8171 33.1494 64 33.1494C81.0377 33.1494 94.8506 46.9477 94.8506 64C94.8506 81.0523 81.0377 94.8506 64 94.8506C58.8728 94.8506 54.0446 93.6029 49.796 91.3964C47.6433 90.2785 44.9164 90.1945 42.681 91.6205C38.8478 94.0657 38.2428 100.051 42.7842 102.555C49.0781 106.026 56.3123 108 64 108C88.301 108 108 88.2967 108 64C108 39.7034 88.301 20 64 20Z" fill="#CB5C5B"/>
<path d="M36.3247 37.3445C33.6032 35.6243 29.8057 36.0903 27.8148 38.9622C22.8875 46.0704 20 54.7023 20 64C20 73.3757 22.9362 82.0743 27.9391 89.2161C29.9428 92.0764 33.7397 92.5251 36.4525 90.7946C39.8975 88.5971 40.2973 84.0837 38.2872 81.0597C35.0411 76.1765 33.1494 70.3152 33.1494 64C33.1494 57.7395 35.0085 51.9251 38.2031 47.0675C40.1973 44.0351 39.777 39.5266 36.3247 37.3445Z" fill="#CB5C5B"/>
<path d="M61.4583 47.8134C57.0812 45.0308 51.3563 48.1751 51.3563 53.3618V74.6382C51.3563 79.8249 57.0812 82.9692 61.4583 80.1867L78.1925 69.5485C82.2558 66.9654 82.2558 61.0346 78.1925 58.4515L61.4583 47.8134Z" fill="#CB5C5B"/>
</svg>
